<?xml version="1.0" standalone="no"?>
<!DOCTYPE svg PUBLIC "-//W3C//DTD SVG 20010904//EN"
 "http://www.w3.org/TR/2001/REC-SVG-20010904/DTD/svg10.dtd">
<svg version="1.0" xmlns="http://www.w3.org/2000/svg"
 width="200.000000pt" height="200.000000pt" viewBox="0 0 200.000000 200.000000"
 preserveAspectRatio="xMidYMid meet">
<metadata>
Created by potrace 1.11, written by Peter Selinger 2001-2013
</metadata>
<g transform="translate(0.000000,200.000000) scale(0.100000,-0.100000)"
fill="#000000" stroke="none">
<path d="M830 1983 c-14 -7 -31 -11 -37 -8 -7 2 -13 0 -13 -6 0 -6 -4 -8 -9
-4 -5 3 -17 -2 -25 -11 -9 -9 -23 -13 -31 -10 -8 3 -15 1 -15 -5 0 -6 -4 -7
-10 -4 -5 3 -10 1 -10 -5 0 -6 -4 -8 -10 -5 -5 3 -10 1 -10 -5 0 -6 -4 -8 -10
-5 -5 3 -10 1 -10 -5 0 -6 -5 -8 -10 -5 -6 3 -13 -1 -16 -9 -3 -9 -9 -14 -14
-11 -4 2 -16 -5 -28 -15 -12 -11 -25 -20 -31 -20 -5 0 -12 -7 -15 -16 -4 -9
-9 -15 -12 -12 -6 7 -74 -61 -74 -74 0 -5 -4 -7 -8 -4 -5 3 -15 -6 -22 -19 -7
-13 -18 -22 -23 -18 -6 3 -7 2 -4 -4 3 -5 -7 -26 -24 -46 -17 -20 -31 -46 -32
-57 -1 -11 -4 -20 -8 -20 -8 0 -35 -62 -31 -72 1 -5 -3 -8 -9 -8 -5 0 -7 -4
-4 -10 3 -5 2 -10 -2 -10 -5 0 -9 -8 -10 -17 -1 -16 -9 -50 -13 -63 -1 -3 -2
-9 -1 -13 1 -4 -4 -17 -10 -29 -9 -16 -8 -19 3 -12 10 6 11 5 2 -7 -15 -20
-19 -195 -4 -204 8 -5 8 -10 0 -20 -8 -9 -8 -15 0 -20 5 -3 10 -16 10 -28 0
-12 10 -47 21 -77 12 -30 22 -63 22 -72 1 -9 4 -15 7 -13 4 2 13 -11 20 -30 7
-19 18 -31 23 -28 6 4 7 1 2 -7 -5 -8 -2 -17 7 -24 24 -18 34 -66 33 -153 0
-46 3 -83 8 -83 4 0 6 -4 3 -8 -6 -11 76 -50 119 -58 16 -3 32 -8 35 -12 3 -4
19 -8 35 -9 61 -4 85 -7 85 -13 0 -3 32 -6 72 -8 39 -1 78 -8 87 -15 12 -10
13 -9 6 2 -6 11 -4 13 7 8 9 -3 21 0 28 6 10 9 11 9 6 0 -5 -8 34 -11 154 -11
87 1 157 5 154 9 -3 5 6 5 20 -1 19 -7 26 -6 26 3 0 8 4 7 10 -3 5 -8 10 -10
10 -3 0 6 13 10 30 9 17 -1 30 1 30 5 0 3 14 5 30 3 17 -2 30 0 30 4 0 4 18 8
41 9 22 1 46 7 54 13 7 6 17 10 21 9 28 -5 54 2 48 13 -5 7 -2 9 9 5 10 -4 27
4 45 21 28 26 28 29 27 125 -1 75 2 97 13 97 7 0 10 5 7 10 -3 6 -1 10 5 10 6
0 8 5 5 10 -3 6 -1 10 5 10 6 0 8 5 5 10 -3 6 1 13 9 16 9 3 16 10 16 14 0 4
9 27 19 51 11 24 20 48 20 52 -1 4 7 20 16 34 12 17 13 23 4 17 -12 -6 -12 -5
0 9 7 9 10 17 6 17 -4 0 -2 6 4 13 6 8 8 16 5 20 -3 3 0 15 6 27 10 18 10 21
-2 14 -10 -6 -11 -5 -2 7 14 19 16 199 2 216 -8 10 -7 13 3 13 9 0 10 3 4 8
-5 4 -11 12 -12 19 -1 6 -5 26 -9 45 -4 18 -8 43 -8 55 -1 11 -4 19 -9 16 -4
-2 -10 4 -13 14 -3 10 -8 25 -12 33 -3 8 -6 19 -6 23 -1 4 -7 11 -14 16 -8 5
-13 11 -13 15 4 25 0 36 -11 30 -8 -5 -9 -2 -5 9 4 11 1 17 -8 17 -8 0 -14 4
-13 9 3 9 -73 110 -84 111 -12 0 -58 50 -58 62 0 6 -3 8 -6 5 -4 -4 -24 7 -44
23 -21 17 -42 30 -48 30 -6 0 -12 4 -14 9 -1 5 -9 11 -17 13 -7 2 -42 17 -77
34 -35 17 -61 27 -58 23 3 -5 0 -9 -5 -9 -6 0 -11 4 -11 8 0 9 -7 10 -55 13
-14 1 -25 4 -25 8 0 3 -11 7 -25 7 -16 1 -22 -2 -18 -10 4 -6 0 -6 -9 2 -19
15 -198 15 -198 0 0 -7 -4 -7 -12 -1 -9 6 -22 5 -38 -4z m85 -143 c9 8 15 8
20 0 4 -6 12 -7 23 -1 18 10 73 8 90 -3 6 -3 14 -2 17 4 5 8 11 7 21 -1 11 -9
14 -8 14 2 0 12 2 12 9 0 5 -7 20 -13 35 -13 14 0 26 -3 26 -7 0 -4 8 -7 18
-8 31 -2 46 -8 60 -21 8 -7 18 -10 23 -7 5 4 9 1 9 -4 0 -6 7 -11 15 -11 8 0
15 -5 15 -10 0 -6 6 -9 13 -8 6 2 11 -3 9 -10 -1 -8 2 -11 7 -8 5 4 16 -1 24
-9 9 -8 18 -15 21 -15 12 0 66 -58 66 -70 0 -7 3 -11 6 -7 8 8 33 -16 27 -26
-2 -4 3 -10 11 -13 9 -3 16 -13 16 -20 0 -8 7 -17 16 -21 8 -3 13 -12 10 -19
-3 -7 3 -18 12 -23 9 -6 14 -11 9 -11 -4 0 0 -15 9 -32 16 -31 24 -60 27 -100
1 -10 5 -18 10 -18 5 0 7 -9 4 -20 -3 -11 -2 -20 2 -20 9 0 5 -176 -4 -190 -4
-6 -9 -27 -11 -47 -3 -21 -12 -46 -22 -56 -9 -11 -16 -28 -14 -38 2 -10 -2
-19 -8 -19 -6 0 -9 -4 -5 -9 3 -5 -2 -16 -10 -24 -8 -9 -15 -20 -15 -26 0 -6
-4 -11 -10 -11 -5 0 -10 -5 -10 -11 0 -7 -11 -22 -26 -35 -14 -13 -23 -24 -20
-24 3 0 -2 -9 -11 -20 -10 -11 -23 -20 -31 -20 -7 0 -10 -5 -7 -10 3 -6 3 -11
-2 -11 -4 -1 -23 -3 -42 -5 -19 -2 -40 -9 -47 -15 -10 -8 -18 -8 -27 0 -8 6
-17 7 -21 3 -10 -9 -43 -11 -236 -11 -244 -1 -280 0 -280 13 0 6 -5 4 -10 -4
-6 -10 -10 -11 -10 -2 0 6 -9 12 -21 12 -13 0 -18 -4 -13 -12 6 -10 5 -10 -7
-1 -8 6 -27 13 -44 15 -16 1 -36 8 -43 13 -29 22 -83 75 -77 75 3 0 0 6 -7 14
-31 33 -46 55 -41 60 4 3 1 6 -6 6 -7 0 -10 4 -7 9 3 5 -1 14 -9 21 -8 7 -12
16 -9 21 3 5 1 9 -4 9 -6 0 -13 16 -16 35 -4 19 -11 35 -16 35 -5 0 -7 7 -4
15 4 8 0 23 -7 32 -12 14 -12 16 1 8 13 -8 13 -6 2 8 -8 9 -11 20 -8 26 3 5 0
12 -6 14 -10 4 -9 8 2 16 8 6 10 11 5 11 -6 0 -11 27 -10 65 0 47 4 65 13 65
10 0 9 4 -2 16 -18 17 -21 28 -6 19 6 -3 11 3 11 14 2 23 3 29 12 51 3 8 11
32 17 53 6 20 16 37 21 37 6 0 8 4 5 9 -3 5 2 19 12 32 10 13 22 32 25 42 4
10 12 15 17 12 6 -4 9 -3 8 2 -4 14 54 83 69 83 8 0 11 5 8 11 -4 6 2 13 14
16 12 3 21 9 21 14 0 5 7 9 15 9 8 0 15 5 15 10 0 10 34 27 54 28 5 0 12 4 15
9 11 15 52 34 61 28 6 -4 10 -1 10 5 0 6 5 8 10 5 6 -3 10 -2 10 3 0 5 11 8
25 7 14 -2 25 1 25 6 0 6 5 7 10 4 6 -3 10 0 11 7 0 10 2 11 6 0 4 -9 8 -10
18 -2z"/>
<path d="M309 523 c-5 -47 -2 -153 4 -153 5 0 5 -4 2 -10 -3 -5 1 -10 9 -10 9
0 16 -4 16 -10 0 -5 6 -10 14 -10 7 0 19 -6 26 -14 6 -8 19 -12 27 -9 9 4 14
2 10 -3 -3 -5 2 -10 11 -11 40 -3 62 -8 62 -13 0 -5 37 -10 88 -13 6 0 12 -4
12 -8 0 -4 8 -6 18 -4 9 1 23 -2 30 -8 8 -6 12 -6 12 1 0 6 13 7 34 2 19 -4
37 -5 40 -2 4 3 6 -1 6 -9 0 -11 2 -11 10 1 8 12 10 12 10 1 0 -10 3 -11 14
-2 9 8 16 8 20 2 8 -12 436 -12 436 1 0 5 8 4 19 -1 10 -6 21 -8 24 -4 7 6 39
11 97 14 19 1 41 7 48 12 8 6 12 5 12 -4 0 -11 2 -11 8 -2 4 7 22 13 40 15 18
1 32 5 32 9 0 4 6 7 13 6 36 -1 57 4 52 13 -3 6 1 7 10 4 8 -4 26 1 40 10 14
9 30 14 35 11 6 -3 10 1 10 9 0 8 7 19 15 23 11 6 15 27 16 73 2 99 1 104 -14
91 -8 -6 -18 -7 -22 -3 -5 4 -5 1 -1 -5 6 -12 -5 -18 -26 -14 -5 0 -8 -3 -8
-8 0 -9 -28 -22 -59 -27 -8 -2 -17 -6 -20 -11 -3 -5 -15 -8 -26 -8 -11 0 -24
-3 -30 -6 -15 -10 -79 -22 -173 -34 -18 -2 -37 -7 -42 -10 -6 -3 -10 0 -10 7
0 9 -3 9 -8 2 -4 -6 -29 -12 -56 -13 -28 -1 -53 -4 -58 -7 -4 -3 -8 0 -8 7 0
7 -4 8 -12 2 -16 -12 -228 -11 -247 1 -10 6 -12 5 -7 -2 4 -7 2 -12 -3 -12 -6
0 -11 5 -11 12 0 8 -3 9 -11 1 -14 -14 -61 -4 -52 11 5 8 3 8 -8 0 -16 -12
-29 -12 -48 0 -10 7 -12 6 -6 -4 6 -10 4 -11 -6 -4 -8 5 -30 9 -49 10 -19 1
-35 3 -35 4 0 2 -12 3 -27 4 -15 1 -30 5 -34 9 -4 4 -20 7 -36 7 -15 0 -28 4
-28 9 0 5 -8 8 -17 7 -10 -2 -25 1 -33 5 -8 4 -41 20 -72 35 -32 14 -58 30
-58 35 0 11 -20 12 -21 2z"/>
<path d="M230 251 c0 -57 4 -82 15 -91 8 -7 12 -17 8 -24 -3 -6 -3 -8 1 -4 4
3 24 -5 43 -18 20 -13 44 -24 54 -24 10 0 21 -5 24 -11 4 -6 13 -8 21 -5 8 3
14 1 14 -5 0 -6 7 -9 15 -5 8 3 15 2 15 -2 0 -4 8 -8 18 -8 9 -1 33 -5 52 -9
19 -5 45 -9 58 -9 15 -1 21 -6 17 -16 -3 -9 1 -7 10 4 8 11 15 14 15 7 0 -7 5
-9 10 -6 6 3 10 3 10 -2 0 -4 18 -7 40 -7 22 1 42 -2 45 -7 3 -4 16 -4 29 1
13 5 29 4 37 -1 20 -12 440 -9 433 3 -4 6 3 5 15 -1 14 -8 21 -8 21 -1 0 5 5
10 11 10 5 0 7 -5 3 -12 -5 -7 -3 -8 7 -3 7 5 27 10 44 12 16 1 58 7 92 13 34
6 65 9 70 8 4 -1 17 3 28 9 11 5 30 9 43 8 12 -1 22 2 22 6 0 4 16 10 35 13
19 4 35 12 35 19 0 7 4 6 10 -3 6 -10 10 -11 10 -2 0 6 5 12 12 12 6 0 26 11
43 25 18 13 36 21 40 17 5 -4 5 -1 1 5 -4 7 -3 13 2 13 5 0 9 17 9 38 0 21 3
43 7 50 4 7 3 12 -1 12 -5 0 -7 16 -5 36 4 34 3 35 -17 25 -11 -7 -21 -17 -21
-23 0 -6 -3 -8 -6 -5 -4 4 -14 -2 -23 -12 -13 -15 -50 -33 -71 -34 -3 0 -11
-7 -19 -14 -10 -11 -16 -11 -28 -2 -11 10 -13 10 -11 -1 2 -8 -10 -14 -32 -17
-19 -3 -37 -8 -40 -11 -3 -4 -23 -9 -45 -10 -22 -2 -41 -8 -43 -13 -2 -5 -8
-9 -13 -9 -6 0 -8 4 -4 9 3 6 -7 6 -26 1 -18 -5 -36 -7 -40 -4 -5 3 -9 -1 -9
-8 0 -9 -3 -9 -10 2 -9 13 -10 13 -10 0 0 -9 -3 -11 -8 -5 -10 15 -35 18 -26
4 5 -9 2 -10 -9 -6 -9 3 -19 2 -23 -4 -4 -7 -10 -7 -18 0 -9 7 -16 7 -24 -1
-9 -9 -12 -9 -12 1 0 9 -4 10 -12 4 -11 -8 -321 -11 -338 -4 -18 8 -50 6 -50
-3 0 -6 -4 -5 -9 3 -5 8 -16 11 -24 8 -8 -3 -20 0 -26 6 -8 8 -11 8 -11 -2 0
-7 -5 -9 -11 -5 -7 4 -25 7 -41 6 -15 0 -26 3 -23 8 3 5 -8 5 -25 0 -19 -5
-28 -5 -25 1 5 7 -40 12 -71 8 -4 0 -10 4 -13 9 -4 6 -18 12 -31 14 -14 2 -31
7 -39 12 -10 7 -12 5 -6 -3 4 -8 -2 -7 -17 3 -14 9 -28 13 -31 9 -4 -3 -7 -1
-7 5 0 7 -7 12 -15 12 -8 0 -15 5 -15 10 0 6 -3 9 -7 9 -20 -3 -32 3 -61 31
-18 17 -34 30 -37 30 -3 0 -5 -35 -5 -79z"/>
</g>
</svg>
